<svg width="20" height="20" viewBox="0 0 20 20" fill="none" xmlns="http://www.w3.org/2000/svg">
<path d="M10.0001 6.45829C9.80857 6.45829 9.61893 6.42057 9.442 6.34728C9.26507 6.274 9.1043 6.16658 8.96888 6.03116C8.83346 5.89574 8.72605 5.73497 8.65276 5.55804C8.57947 5.38111 8.54175 5.19147 8.54175 4.99996C8.54175 4.80845 8.57947 4.61881 8.65276 4.44188C8.72605 4.26495 8.83346 4.10418 8.96888 3.96876C9.1043 3.83334 9.26507 3.72592 9.442 3.65263C9.61893 3.57935 9.80857 3.54163 10.0001 3.54163C10.3869 3.54163 10.7578 3.69527 11.0313 3.96876C11.3048 4.24225 11.4584 4.61319 11.4584 4.99996C11.4584 5.38673 11.3048 5.75767 11.0313 6.03116C10.7578 6.30465 10.3869 6.45829 10.0001 6.45829ZM10.0001 11.4583C9.61331 11.4583 9.24237 11.3046 8.96888 11.0312C8.69539 10.7577 8.54175 10.3867 8.54175 9.99996C8.54175 9.61319 8.69539 9.24225 8.96888 8.96876C9.24237 8.69527 9.61331 8.54163 10.0001 8.54163C10.3869 8.54163 10.7578 8.69527 11.0313 8.96876C11.3048 9.24225 11.4584 9.61319 11.4584 9.99996C11.4584 10.3867 11.3048 10.7577 11.0313 11.0312C10.7578 11.3046 10.3869 11.4583 10.0001 11.4583ZM8.54175 15C8.54175 15.3867 8.69539 15.7577 8.96888 16.0312C9.24237 16.3046 9.61331 16.4583 10.0001 16.4583C10.3869 16.4583 10.7578 16.3046 11.0313 16.0312C11.3048 15.7577 11.4584 15.3867 11.4584 15C11.4584 14.6132 11.3048 14.2423 11.0313 13.9688C10.7578 13.6953 10.3869 13.5416 10.0001 13.5416C9.61331 13.5416 9.24237 13.6953 8.96888 13.9688C8.69539 14.2423 8.54175 14.6132 8.54175 15Z" fill="#777777"/>
</svg>
