<svg width="24" height="24" viewBox="0 0 24 24" fill="none" xmlns="http://www.w3.org/2000/svg">
<path d="M12 3C12.2449 3.00003 12.4813 3.08996 12.6644 3.25272C12.8474 3.41547 12.9643 3.63975 12.993 3.883L13 4V20C12.9997 20.2549 12.9021 20.5 12.7272 20.6854C12.5522 20.8707 12.313 20.9822 12.0586 20.9972C11.8042 21.0121 11.5536 20.9293 11.3582 20.7657C11.1627 20.6021 11.0371 20.3701 11.007 20.117L11 20V4C11 3.73478 11.1054 3.48043 11.2929 3.29289C11.4804 3.10536 11.7348 3 12 3ZM8 6C8.24493 6.00003 8.48134 6.08996 8.66437 6.25272C8.84741 6.41547 8.96434 6.63975 8.993 6.883L9 7V17C8.99972 17.2549 8.90212 17.5 8.72715 17.6854C8.55218 17.8707 8.31305 17.9822 8.05861 17.9972C7.80416 18.0121 7.55362 17.9293 7.35817 17.7657C7.16271 17.6021 7.0371 17.3701 7.007 17.117L7 17V7C7 6.73478 7.10536 6.48043 7.29289 6.29289C7.48043 6.10536 7.73478 6 8 6ZM16 6C16.2449 6.00003 16.4813 6.08996 16.6644 6.25272C16.8474 6.41547 16.9643 6.63975 16.993 6.883L17 7V17C16.9997 17.2549 16.9021 17.5 16.7272 17.6854C16.5522 17.8707 16.313 17.9822 16.0586 17.9972C15.8042 18.0121 15.5536 17.9293 15.3582 17.7657C15.1627 17.6021 15.0371 17.3701 15.007 17.117L15 17V7C15 6.73478 15.1054 6.48043 15.2929 6.29289C15.4804 6.10536 15.7348 6 16 6ZM4 9C4.24493 9.00003 4.48134 9.08996 4.66437 9.25272C4.84741 9.41547 4.96434 9.63975 4.993 9.883L5 10V14C4.99972 14.2549 4.90212 14.5 4.72715 14.6854C4.55218 14.8707 4.31305 14.9822 4.05861 14.9972C3.80416 15.0121 3.55362 14.9293 3.35817 14.7657C3.16271 14.6021 3.0371 14.3701 3.007 14.117L3 14V10C3 9.73478 3.10536 9.48043 3.29289 9.29289C3.48043 9.10536 3.73478 9 4 9ZM20 9C20.2449 9.00003 20.4813 9.08996 20.6644 9.25272C20.8474 9.41547 20.9643 9.63975 20.993 9.883L21 10V14C20.9997 14.2549 20.9021 14.5 20.7272 14.6854C20.5522 14.8707 20.313 14.9822 20.0586 14.9972C19.8042 15.0121 19.5536 14.9293 19.3582 14.7657C19.1627 14.6021 19.0371 14.3701 19.007 14.117L19 14V10C19 9.73478 19.1054 9.48043 19.2929 9.29289C19.4804 9.10536 19.7348 9 20 9Z" fill="url(#paint0_linear_33_263)"/>
<defs>
<linearGradient id="paint0_linear_33_263" x1="4.5" y1="14" x2="16.5" y2="9.5" gradientUnits="userSpaceOnUse">
<stop offset="0.25" stop-color="#5084FF"/>
<stop offset="1" stop-color="#A056FF"/>
</linearGradient>
</defs>
</svg>
